# xmcd
#
# Track frame offsets: 
#        150
#        12469
#        25881
#        39099
#        51816
#        64941
#        77271
#        90981
#        104378
#        116531
#        128760
#        141144
#        154049
#        166835
#        178937
#        192280
#        204886
#        217551
#        228011
#        238967
#        251061
#        264339
#        279426
#        291958
#
# Disc length: 4053 seconds
#
# Revision: 1
# Processed by: cddbd v1.5.2PL0 Copyright (c) Steve Scherf et al.
# Submitted via: ExactAudioCopy v1.0b3
#
DISCID=3b0fd318
DTITLE=Hawkshaw Hawkins - I'm A Rattlesnakin' Daddy
DYEAR=1900
DGENRE=Country
TTITLE0=Lonesome 7-7203 (Undubbed Version)
TTITLE1=I Ain't Goin' Honky Tonkin' Anymore
TTITLE2=I've Got The Blues
TTITLE3=When They Found The Atomic Power
TTITLE4=Sunny Side Of The Mountain
TTITLE5=You Nearly Lose Your Mind
TTITLE6=The Last Letter
TTITLE7=Pan American
TTITLE8=Dog House Boogie
TTITLE9=Back To The Dog House
TTITLE10=I Love You A Thousand Ways
TTITLE11=Teardrops From My Eyes
TTITLE12=Unwanted
TTITLE13=The Shot Gun Boogie
TTITLE14=Slow Poke
TTITLE15=I'm Waiting Just For You
TTITLE16=Be My Life's Companion
TTITLE17=Got You On My Mind
TTITLE18=Everbody's Got A Girl But Me
TTITLE19=I'm A Lone Wolf
TTITLE20=Kaw-Liga
TTITLE21=The Life Of Hank Williams
TTITLE22=Rattlesnakin' Daddy
TTITLE23=Lonesome 7-7203 (Single Master)
EXTD=
EXTT0=
EXTT1=
EXTT2=
EXTT3=
EXTT4=
EXTT5=
EXTT6=
EXTT7=
EXTT8=
EXTT9=
EXTT10=
EXTT11=
EXTT12=
EXTT13=
EXTT14=
EXTT15=
EXTT16=
EXTT17=
EXTT18=
EXTT19=
EXTT20=
EXTT21=
EXTT22=
EXTT23=
PLAYORDER=
